<?xml version="1.0" encoding="UTF-8" standalone="no"?>
<!-- Created with Inkscape (http://www.inkscape.org/) -->

<svg
   xmlns:dc="http://purl.org/dc/elements/1.1/"
   xmlns:cc="http://creativecommons.org/ns#"
   xmlns:rdf="http://www.w3.org/1999/02/22-rdf-syntax-ns#"
   xmlns:svg="http://www.w3.org/2000/svg"
   xmlns="http://www.w3.org/2000/svg"
   xmlns:sodipodi="http://sodipodi.sourceforge.net/DTD/sodipodi-0.dtd"
   xmlns:inkscape="http://www.inkscape.org/namespaces/inkscape"
   version="1.1"
   id="svg879"
   width="512"
   height="512"
   viewBox="0 0 512 512"
   sodipodi:docname="background.png"
   inkscape:version="0.92.4 (f8dce91, 2019-08-02)">
  <metadata
     id="metadata885">
    <rdf:RDF>
      <cc:Work
         rdf:about="">
        <dc:format>image/svg+xml</dc:format>
        <dc:type
           rdf:resource="http://purl.org/dc/dcmitype/StillImage" />
        <dc:title></dc:title>
      </cc:Work>
    </rdf:RDF>
  </metadata>
  <defs
     id="defs883" />
  <sodipodi:namedview
     pagecolor="#ffffff"
     bordercolor="#666666"
     borderopacity="1"
     objecttolerance="10"
     gridtolerance="10"
     guidetolerance="10"
     inkscape:pageopacity="0"
     inkscape:pageshadow="2"
     inkscape:window-width="1853"
     inkscape:window-height="1025"
     id="namedview881"
     showgrid="false"
     inkscape:zoom="1.6484375"
     inkscape:cx="256"
     inkscape:cy="256"
     inkscape:window-x="67"
     inkscape:window-y="27"
     inkscape:window-maximized="1"
     inkscape:current-layer="svg879" />
  <path
     style="fill:#fff800;fill-opacity:0.20657277"
     d="M 199.6039,462.75788 177.69715,440.83413 H 163.93862 150.1801 V 427.10391 413.3737 l -8.72915,-8.76979 -8.72915,-8.76978 H 99.45095 66.180095 v -33.23121 -33.23121 l -9.23025,-9.26879 -9.230249,-9.26879 9.230249,-9.26879 9.23025,-9.26879 v -10.36591 -10.36591 l -9.222767,-9.6153 C 51.884807,256.66101 41.427013,245.92051 33.717787,238.08165 L 19.701012,223.82917 42.940554,200.57383 66.180095,177.3185 v -13.74219 -13.74218 h 13.778888 13.778889 l 6.221118,-6.27691 6.22111,-6.2769 v -35.7231 -35.723093 h 35.72788 35.72787 l 7.77213,-7.72654 7.77212,-7.72654 7.77212,7.72654 7.77213,7.72654 h 13.48621 13.48621 l 22.48351,-22.50018 22.4835,-22.500177 22.51614,22.500177 22.51614,22.50018 h 13.24202 13.24202 v 13.27346 13.27346 l 7.75899,7.713483 7.75898,7.71348 35.49102,0.26306 35.49101,0.26306 0.26306,35.49101 0.26306,35.49102 7.71348,7.75898 7.71348,7.75899 -7.72654,7.77212 -7.72654,7.77213 v 13.97052 13.97052 l 24.7425,24.75735 24.7425,24.75736 -24.7104,24.75 -24.7104,24.75 -0.2821,8.5 -0.2821,8.5 -8.5,0.28426 -8.5,0.28426 -12.75,12.70131 -12.75,12.70131 v 30.26443 30.26443 h -30.26787 -30.26786 l -10.46504,10.50077 -10.46503,10.50077 -10.53343,-10.50077 -10.53343,-10.50077 -13.48367,0.008 -13.48367,0.008 -22.58472,21.91568 -22.58472,21.91567 -21.90676,-21.92374 z m 43.08737,-14.91249 -6.95753,-7.01126 h -27.27682 c -15.00225,0 -27.27682,0.33348 -27.27682,0.74107 0,0.40758 9.10945,9.85866 20.24323,21.00238 l 20.24323,20.26131 13.99113,-13.99112 13.99112,-13.99112 z m 81.98883,1.98874 8.9583,-9 h -18.22915 c -10.02603,0 -18.22915,0.3281 -18.22915,0.72911 0,1.14825 16.33537,17.27089 17.49877,17.27089 0.57361,0 5.07416,-4.05 10.00123,-9 z m -67.5,-2.5 6.44222,-6.5 H 250.6801 237.73788 l 6.44222,6.5 c 3.54322,3.575 6.46822,6.5 6.5,6.5 0.0318,0 2.95678,-2.925 6.5,-6.5 z m -82,-8.76631 c 0,-0.14647 -5.175,-5.42663 -11.5,-11.73369 l -11.5,-11.46738 v 11.73369 11.73369 h 11.5 c 6.325,0 11.5,-0.11984 11.5,-0.26631 z m 37,-21.23369 -21.48256,-21.5 H 171.43882 152.1801 v 8.7361 8.73609 l 12.73557,12.76391 12.73557,12.7639 h 28.00571 28.00571 z m 60.00816,14.99176 6.45039,-6.50823 -14.96677,-14.99177 -14.96677,-14.99176 h -26.20349 c -18.15602,0 -26.41464,0.34165 -26.89101,1.11244 -0.40205,0.65053 7.77027,9.5778 19.68183,21.5 l 20.36936,20.38756 h 15.03804 15.03804 z m 13.73097,0.76911 -5.73913,-5.73913 -5.73913,5.73913 -5.73913,5.73913 h 11.47826 11.47826 z m 79.00462,-23.50451 29.25625,-29.24365 v -12.75635 -12.75636 h -20.74479 -20.74479 l -35.25521,35.24472 c -19.39037,19.38459 -35.25521,35.68404 -35.25521,36.221 0,0.53696 2.57341,3.57683 5.7187,6.75528 l 5.71869,5.779 h 21.02506 21.02505 z m 29.25625,1.24364 c 0,-15.4 -0.11551,-28 -0.2567,-28 -0.14118,0 -12.85067,12.6 -28.2433,28 l -27.98661,28 h 28.24331 28.2433 z m -99.5,-1 13.97321,-14 H 280.4167 c -15.53013,0 -28.2366,0.33147 -28.2366,0.73659 0,1.14656 26.34302,27.26341 27.4995,27.26341 0.56501,0 7.31524,-6.3 15.0005,-14 z m -144.5,-7 v -7 h -7 c -3.85,0 -7,0.32539 -7,0.72309 0,0.98219 12.24306,13.27691 13.22111,13.27691 0.42839,0 0.77889,-3.15 0.77889,-7 z M 170.38672,375.5476 152.1801,357.34098 v 18.2235 18.2235 l 17.75,0.27308 c 9.7625,0.15019 17.95548,0.14259 18.20662,-0.0169 0.25114,-0.15948 -7.73636,-8.48294 -17.75,-18.49658 z M 99.6801,362.83413 c -17.043351,-17.05 -31.328129,-31 -31.743956,-31 -0.415827,0 -0.756049,13.95 -0.756049,31 v 31 H 98.92405 130.668 Z m 50.5,11.74479 v -19.25521 l -35.98543,-35.97502 -35.985438,-35.97501 -5.514569,5.44606 -5.514568,5.44607 v 16.99908 16.99908 l 32.729695,32.78508 32.7297,32.78508 h 8.7703 8.77031 z m 58.2709,6.48482 12.74205,-12.7704 -6.75647,-6.68878 -6.75648,-6.68877 -7.5,-0.29083 -7.5,-0.29083 -0.28686,-7.5 -0.28686,-7.5 -13.69974,-13.75 -13.69975,-13.75 h -6.26339 -6.2634 v 21.24085 21.24085 l 19.74062,19.75915 c 12.65527,12.66715 20.46702,19.75915 21.76443,19.75915 1.2609,0 6.82711,-4.81399 14.76585,-12.77039 z m 26.22879,0.77008 -11.96904,-12.0003 -11.98176,11.7503 c -6.58996,6.46267 -12.18436,11.86281 -12.43199,12.00031 -0.24763,0.1375 10.53023,0.25 23.9508,0.25 h 24.40104 z m 75.50031,-7.49969 v -19.5 h -7.77889 -7.77889 l -6.44222,6.5 c -3.54322,3.575 -6.68973,6.5 -6.99223,6.5 -0.30251,0 -3.56259,-2.925 -7.24463,-6.5 l -6.69461,-6.5 h -14.81109 -14.81108 l -6.95225,7.00594 -6.95225,7.00593 12.46406,12.49407 12.46407,12.49406 h 30.765 30.76501 z m 21,-1 18.47973,-18.5 H 330.91996 312.1801 v 18.5 c 0,10.175 0.11706,18.5 0.26014,18.5 0.14307,0 8.57601,-8.325 18.73986,-18.5 z m 77,-7 11.46738,-11.5 H 407.91379 396.1801 v 11.5 c 0,6.325 0.11984,11.5 0.26631,11.5 0.14647,0 5.42663,-5.175 11.73369,-11.5 z m -179.5,-5.5 5.93739,-6 H 222.1801 209.74271 l 5.93739,6 c 3.26557,3.3 6.19057,6 6.5,6 0.30943,0 3.23443,-2.7 6.5,-6 z m 58.5,-0.5 5.43168,-5.5 H 281.1801 269.74842 l 5.43168,5.5 c 2.98742,3.025 5.68742,5.5 6,5.5 0.31258,0 3.01258,-2.475 6,-5.5 z m -82,-7.78416 c 0,-0.15629 -2.475,-2.72842 -5.5,-5.71584 l -5.5,-5.43168 v 5.71584 5.71584 h 5.5 c 3.025,0 5.5,-0.12787 5.5,-0.28416 z m 37.73131,-5.9451 6.28513,-6.22925 -14.24529,-14.27075 -14.24528,-14.27074 H 207.44303 194.1801 v 13.67241 13.67242 l 6.82759,6.82758 6.82758,6.82759 h 14.39551 14.39551 z m 21.25411,5.47926 c -0.0207,-1.06446 -10.56979,-11.25 -11.65156,-11.25 -0.49305,0 -3.56829,2.7 -6.83386,6 l -5.93739,6 h 12.21869 c 6.72029,0 12.21214,-0.3375 12.20412,-0.75 z m 38.24246,-6.97654 7.77212,-7.72654 v -12.77346 -12.77346 h -14.76389 -14.7639 l -13.46573,13.49351 -13.46573,13.4935 6.95281,7.0065 6.9528,7.00649 h 13.5047 13.50469 z m 7.77212,1.22654 c 0,-3.575 -0.1255,-6.5 -0.27889,-6.5 -0.15339,0 -3.17789,2.925 -6.72111,6.5 l -6.44222,6.5 h 6.72111 6.72111 z m 62.50219,-14.50219 20.98433,-21.0022 -13.73208,-13.73208 -13.73208,-13.73208 -7.01118,6.95746 -7.01118,6.95745 v 7.27682 7.27682 h -7.2361 -7.23609 L 324.944,324.5697 312.1801,337.30527 v 7.76443 7.76443 h 19.75893 19.75893 z m 21.49781,1.26181 v -19.74039 l -19.5,19.48077 c -10.725,10.71442 -19.5,19.59759 -19.5,19.74038 0,0.14279 8.775,0.25962 19.5,0.25962 h 19.5 z m 35.22788,12.01384 7.77212,-7.72654 V 287.8287 238.27635 l -6.50779,-6.44994 -6.50779,-6.44994 -13.99221,13.96543 -13.99221,13.96544 v 49.76339 49.7634 h 12.72788 12.72787 z m 7.77212,1.22654 c 0,-3.575 -0.1255,-6.5 -0.27889,-6.5 -0.15339,0 -3.17789,2.925 -6.72111,6.5 l -6.44222,6.5 h 6.72111 6.72111 z m -287,-14.5 v -20 h -20.24062 -20.24063 l 19.98125,20 c 10.98969,11 20.09797,20 20.24062,20 0.14266,0 0.25938,-9 0.25938,-20 z m 42,-7.5 v -12.5 h -12 c -6.6,0 -12,0.33074 -12,0.73498 0,0.65871 23.09007,24.26502 23.73437,24.26502 0.1461,0 0.26563,-5.625 0.26563,-12.5 z m 73,0 12.46999,-12.5 H 252.1801 226.71011 l 12.46999,12.5 c 6.85849,6.875 12.70849,12.5 13,12.5 0.29151,0 6.14151,-5.625 13,-12.5 z m 59,-1 11.46738,-11.5 H 323.91379 312.1801 v 11.5 c 0,6.325 0.11984,11.5 0.26631,11.5 0.14647,0 5.42663,-5.175 11.73369,-11.5 z M 462.92747,264.08676 439.1801,240.33939 v 47.49474 47.49474 l 23.74737,-23.74737 23.74737,-23.74737 z M 66.180095,310.60759 v -15.22654 l -7.999972,7.95305 -7.999972,7.95305 7.224944,7.27349 c 3.97372,4.00042 7.573707,7.27349 7.999972,7.27349 0.426266,0 0.775028,-6.85194 0.775028,-15.22654 z m 84.000005,-6.98911 c 0,-6.06469 -0.11445,-6.33185 -4.71241,-11 l -4.71241,-4.78435 4.71241,-4.78435 c 4.11472,-4.17753 4.71241,-5.31903 4.71241,-9 0,-2.31861 -0.34172,-4.21565 -0.75938,-4.21565 -0.41765,0 -9.75093,9 -20.74062,20 l -19.98125,20 h 20.74063 20.74062 z m 12,5.92806 c 0,-0.15818 -2.25,-2.50376 -5,-5.21241 l -5,-4.92482 v 5.21241 5.21241 h 5 c 2.75,0 5,-0.12942 5,-0.28759 z m 30,-12.97872 v -13.26631 l -11.26826,-11.2363 -11.26826,-11.23629 -8.73174,8.77239 -8.73174,8.77239 v 9.45331 9.45331 l 6.22111,6.2769 6.22111,6.27691 h 13.77889 13.77889 z m 14.95361,1.40654 c -6.29949,-6.52288 -11.79111,-11.92288 -12.20361,-12 -0.4125,-0.0771 -0.75,5.25977 -0.75,11.85977 v 12 h 12.20361 12.2036 z m 87.78466,-3.37813 15.26173,-15.2379 v -26.00037 -26.00037 l -15.2379,-15.26173 -15.2379,-15.26173 h -23.04502 -23.04503 l -19.71707,19.80699 -19.71708,19.80699 v 21.43128 21.43128 l 15.2379,15.26173 15.2379,15.26173 h 27.50037 27.50037 z m 15.26173,1.7379 c 0,-7.425 -0.11875,-13.5 -0.26389,-13.5 -0.14515,0 -6.32639,6.075 -13.73611,13.5 l -13.47221,13.5 h 13.7361 13.73611 z m 33.72309,7.27889 6.27691,-6.22111 v -15.0602 -15.06019 l -5.779,-5.71869 c -3.17845,-3.14529 -6.20945,-5.7187 -6.73556,-5.7187 -0.52611,0 -6.47556,5.50575 -13.221,12.23499 l -12.26444,12.235 v 14.765 14.76501 h 12.72309 12.7231 z m 6.27691,1.22111 c 0,-2.75 -0.12942,-5 -0.28759,-5 -0.15818,0 -2.50376,2.25 -5.21241,5 l -4.92482,5 h 5.21241 5.21241 z m -244,-23.24528 v -26.24529 l -13.240427,13.24043 -13.240422,13.24042 12.975994,13.00486 c 7.136805,7.15267 13.094995,13.00486 13.240425,13.00486 0.14544,0 0.26443,-11.81038 0.26443,-26.24528 z m 44,-28.22227 v -12.98542 l -7.23099,-7.27957 -7.23099,-7.27957 -13.76901,13.74266 -13.76901,13.74266 v 27.50446 27.50447 l 21,-20.98214 21,-20.98214 z m 244,28.22227 v -26.24529 l -13.24042,13.24043 -13.24042,13.24042 12.97599,13.00486 c 7.1368,7.15267 13.09499,13.00486 13.24042,13.00486 0.14544,0 0.26443,-11.81038 0.26443,-26.24528 z m -30,0.74528 c 0,-0.58443 -2.7,-3.73443 -6,-7 l -6,-5.93739 v 12.93739 12.93739 l 6,-5.93739 c 3.3,-3.26557 6,-6.41557 6,-7 z m -214,5.5 c 0,-3.3 -0.36581,-6 -0.81291,-6 -0.4471,0 -2.10629,1.35 -3.68709,3 l -2.87418,3 2.87418,3 c 1.5808,1.65 3.23999,3 3.68709,3 0.4471,0 0.81291,-2.7 0.81291,-6 z m -77.584571,-1.63261 3.915433,-4.44423 -3.868381,-3.96158 c -2.12761,-2.17887 -4.227055,-3.96158 -4.665434,-3.96158 -0.438378,0 -0.797052,3.825 -0.797052,8.5 0,4.675 0.3375,8.45761 0.75,8.40581 0.4125,-0.0518 2.511945,-2.0941 4.665434,-4.53842 z M 394.1801,225.85646 v -27.50447 l -21,20.98214 -21,20.98214 v 12.98541 12.98542 l 7.23099,7.27957 7.23099,7.27957 13.76901,-13.74266 13.76901,-13.74266 z M 92.417152,266.09753 106.1801,252.36092 v -26.76339 c 0,-14.71987 -0.33317,-26.7634 -0.74038,-26.7634 -0.40721,0 -9.182213,8.43306 -19.500005,18.74013 l -18.75962,18.74013 v 16.47842 16.47843 l 5.21584,5.28144 c 2.868712,2.9048 5.450387,5.28145 5.737056,5.28145 0.28667,0 6.714542,-6.18147 14.284161,-13.7366 z m 99.762948,-8.50699 v -19.24359 l -9.73691,9.73691 -9.7369,9.7369 9.46715,9.50669 c 5.20694,5.22867 9.58855,9.50668 9.73691,9.50668 0.14836,0 0.26975,-8.65962 0.26975,-19.24359 z m 132.26594,7.47826 11.73467,-11.76532 -12.0003,-11.96904 -12.00031,-11.96905 v 23.73437 c 0,13.0539 0.11953,23.73437 0.26563,23.73437 0.1461,0 5.54624,-5.2944 12.00031,-11.76533 z m -158.25544,-7.72349 -2.40411,-2.55907 -5.8032,5.74264 c -5.53875,5.48096 -5.80319,5.97157 -5.80319,10.76637 v 5.02373 l 8.20731,-8.20731 8.2073,-8.2073 z M 66.180095,252.83413 c 0,-7.7 -0.349569,-14 -0.77682,-14 -0.42725,0 -3.902681,3.15 -7.72318,7 l -6.946361,7 6.946361,7 c 3.820499,3.85 7.29593,7 7.72318,7 0.427251,0 0.77682,-6.3 0.77682,-14 z m 91.785525,5.71718 5.21719,-5.28282 -5.50135,-5.43302 -5.50136,-5.43302 v 10.71584 c 0,5.89371 0.12787,10.71584 0.28416,10.71584 0.15629,0 2.6319,-2.37727 5.50136,-5.28282 z m 192.21448,-5.43302 v -10.71584 l -5.50136,5.43302 -5.50135,5.43302 5.21719,5.28282 c 2.86946,2.90555 5.34507,5.28282 5.50136,5.28282 0.15629,0 0.28416,-4.82213 0.28416,-10.71584 z m -158,-21.76139 v -5.01297 l -12.7086,12.70861 -12.7086,12.7086 2.41125,2.56666 2.41126,2.56667 10.29734,-10.26231 10.29735,-10.2623 z M 66.180095,207.97326 c 0,-14.92652 -0.341425,-27.13913 -0.758722,-27.13913 -0.417297,0 -10.42482,9.67395 -22.238939,21.49766 l -21.480217,21.49766 13.988939,14.02835 13.988939,14.02834 8.25,-8.38688 8.25,-8.38688 z M 350.1801,224.38992 v -15.00198 l -6.22111,-6.2769 -6.22111,-6.27691 H 324.95899 312.1801 v 14.7361 14.73609 l 12.72937,12.75769 12.72937,12.75769 6.27063,-6.2149 6.27063,-6.21489 z m -228.74974,12.89583 12.75026,-12.97995 -13.00026,-12.97141 -13.00026,-12.9714 v 26.40224 c 0,14.52123 0.1125,26.19934 0.25,25.95135 0.1375,-0.24798 5.98762,-6.29185 13.00026,-13.43083 z m 70.74974,-26.68773 v -13.76389 h -13.72309 -13.7231 l -6.2769,6.22111 -6.27691,6.22111 v 14.0038 14.00379 l 6.72985,6.78182 6.72986,6.78182 13.27014,-13.24283 13.27015,-13.24283 z m 217.76414,0.49976 c -7.28,-7.29501 -13.3551,-13.26365 -13.50025,-13.26365 -0.14514,0 -0.26389,12.03125 -0.26389,26.73611 v 26.7361 l 13.50024,-13.47245 13.50025,-13.47246 z m -50.98426,19.45844 6.2221,-6.2779 -6.50099,-6.44321 -6.50099,-6.4432 v 12.72111 c 0,6.99661 0.1255,12.72111 0.27889,12.72111 0.15339,0 3.07883,-2.82506 6.50099,-6.27791 z m 78.22012,-6.44079 v -11.71869 l -6.00115,5.93853 -6.00116,5.93853 5.71985,5.78017 c 3.14592,3.17909 5.84644,5.78016 6.00116,5.78016 0.15471,0 0.2813,-5.27341 0.2813,-11.7187 z m -287,-1 v -11.71869 l -6.00115,5.93853 -6.00116,5.93853 5.71985,5.78017 c 3.14592,3.17909 5.84644,5.78016 6.00116,5.78016 0.15471,0 0.2813,-5.27341 0.2813,-11.7187 z m 76.34496,-26.09324 -4.69496,-0.31194 -13.825,13.79854 -13.825,13.79855 v 5.00326 5.00326 l 18.51996,-18.48987 18.51996,-18.48986 z M 87.420475,214.094 106.1801,195.35387 V 173.594 151.83413 h -6.2977 -6.297713 l -13.202296,13.33292 -13.202296,13.33293 v 27.16707 c 0,14.9419 0.333171,27.16708 0.74038,27.16708 0.407208,0 9.182208,-8.43306 19.5,-18.74013 z M 310.1801,210.33413 v -13.5 h -13.73611 -13.7361 l 13.47221,13.5 c 7.40972,7.425 13.59096,13.5 13.73611,13.5 0.14514,0 0.26389,-6.075 0.26389,-13.5 z m 69.5,-0.5 12.97114,-13 H 372.41567 352.1801 v 6.2249 6.22491 l 6.72318,6.77509 c 3.69775,3.72631 6.96674,6.7751 7.26443,6.7751 0.29769,0 6.37826,-5.85 13.51239,-13 z m 51.22309,6.77889 6.27691,-6.22111 V 194.8683 179.34469 l -34.74464,-34.75528 -34.74465,-34.75528 h -7.75535 -7.75536 v 20.74486 20.74486 l 35.74479,35.75514 c 19.65964,19.66533 35.96003,35.75514 36.2231,35.75514 0.26306,0 3.30291,-2.7995 6.7552,-6.22111 z M 150.1801,201.61095 v -6.77682 h 6.73749 6.73749 L 177.91759,180.59706 192.1801,166.36 v -7.26294 -7.26293 h -20.24147 -20.24148 l -21.25641,21.23917 -21.25642,21.23917 13.72867,13.755 13.72867,13.75499 6.76922,-6.71734 6.76922,-6.71735 z m 57,7.72318 12.46999,-12.5 h -12.735 -12.73499 v 12.5 c 0,6.875 0.11925,12.5 0.26501,12.5 0.14575,0 5.8765,-5.625 12.73499,-12.5 z m 238.74074,-21.24074 -6.74074,-6.74074 v 13.48148 13.48148 l 6.74074,-6.74074 6.74074,-6.74074 z m -288.78253,13.47213 4.45821,-4.73139 h -4.70821 -4.70821 v 5.16667 c 0,2.84166 0.1125,4.97079 0.25,4.73139 0.1375,-0.2394 2.25619,-2.5644 4.70821,-5.16667 z m 193.04179,0.26861 v -5 h -5.21241 -5.21241 l 4.92482,5 c 2.70865,2.75 5.05423,5 5.21241,5 0.15817,0 0.28759,-2.25 0.28759,-5 z m -158,-19.5 c 0,-6.875 -0.11925,-12.5 -0.26501,-12.5 -0.14575,0 -5.8765,5.625 -12.73499,12.5 l -12.46999,12.5 h 12.735 12.73499 z m 43.49417,-1.49416 13.96738,-13.99416 -7.45575,-7.50584 -7.45574,-7.50584 h -12.50291 -12.5029 l -7.77213,7.72654 -7.77212,7.72654 v 13.77346 13.77346 h 13.7634 13.76339 z m 8.96497,3.03515 c 10.78669,-10.82024 10.90164,-10.98485 9.07796,-13 -1.01589,-1.12254 -2.33333,-2.04099 -2.92765,-2.04099 -1.21298,0 -25.60945,24.03975 -25.60945,25.23499 0,0.42076 1.92017,0.76501 4.26705,0.76501 4.09857,0 4.69845,-0.43273 15.19209,-10.95901 z m 23.04086,0.95901 c -5.47936,-5.5 -10.41246,-10 -10.96245,-10 -1.16352,0 -19.53755,18.08503 -19.53755,19.23025 0,0.42336 9.10406,0.76975 20.23124,0.76975 h 20.23124 z m 42.5,-2.73022 V 169.3737 l -8.72915,-8.76979 -8.72915,-8.76978 h -7.00378 -7.00377 l -10.26819,10.23324 -10.26818,10.23324 11.2348,11.26676 11.2348,11.26676 h 14.76631 14.76631 z m 25,12.46391 c 0,-0.14647 -5.175,-5.42663 -11.5,-11.73369 l -11.5,-11.46738 v 11.73369 11.73369 h 11.5 c 6.325,0 11.5,-0.11984 11.5,-0.26631 z m 15,-21.47327 v -21.73957 l -17.23928,-17.26043 c -9.48161,-9.49323 -17.70036,-17.26042 -18.2639,-17.26042 -0.56353,0 -7.07585,6.06372 -14.47181,13.47494 l -13.44721,13.47494 2.89819,3.02506 c 2.84001,2.96433 3.09518,3.02506 12.7111,3.02506 h 9.81291 v 9.7361 9.73609 l 12.73557,12.76391 12.73557,12.7639 h 6.26443 6.26443 z m 42,20.9802 c 0,-0.41765 -9,-9.75093 -20,-20.74062 l -20,-19.98125 v 20.74063 20.74062 h 20 c 11,0 20,-0.34172 20,-0.75938 z m -263,-21.74062 20.4817,-20.5 h -20.70148 -20.70149 l -0.28936,20.501 c -0.15915,11.27555 -0.0603,20.50055 0.21978,20.5 0.28003,-5.5e-4 9.72591,-9.226 20.99085,-20.501 z m -49.500005,-8.5 11.968736,-12 H 79.414463 67.180095 v 12 c 0,6.6 0.119534,12 0.265632,12 0.146097,0 5.651563,-5.4 12.234368,-12 z m 357.500005,-21 v -33 h -33 c -18.15,0 -33,0.33494 -33,0.74432 0,0.98052 64.26388,65.25568 65.24423,65.25568 0.41567,0 0.75577,-14.85 0.75577,-33 z m -170,18.5 9.4605,-9.5 h -19.4605 -19.4605 l 9.4605,9.5 c 5.20327,5.225 9.70327,9.5 10,9.5 0.29673,0 4.79673,-4.275 10,-9.5 z m 43,-2.5 v -7 h -7.72318 -7.72318 l 6.94636,7 c 3.8205,3.85 7.29593,7 7.72318,7 0.42725,0 0.77682,-3.15 0.77682,-7 z m -109.65217,-0.65217 c 3.10869,-3.1087 5.65217,-5.8087 5.65217,-6 0,-0.19131 -2.7,-0.34783 -6,-0.34783 h -6 v 6 c 0,3.3 0.15652,6 0.34783,6 0.1913,0 2.8913,-2.54348 6,-5.65217 z M 106.1801,145.33413 c 0,-2.475 -0.31853,-4.5 -0.70784,-4.5 -0.98635,0 -8.292165,7.22721 -8.292165,8.20295 0,0.43838 2.025005,0.79705 4.500005,0.79705 h 4.5 z m 80.23399,-30.23392 34.74456,-34.733923 -6.21039,-6.26608 -6.21038,-6.26608 h -15.52361 -15.52361 l -34.75528,34.744643 -34.75528,34.74465 v 6.25535 6.25536 h 21.74472 21.74472 z m 5.76601,15.73392 c 0,-10.45 -0.11694,-19 -0.25987,-19 -0.14293,0 -8.80099,8.55 -19.24013,19 l -18.98026,19 h 19.24013 19.24013 z m 22.51322,12.98664 5.95062,-6.01337 -13.23192,-13.23192 -13.23192,-13.23192 v 19.24529 19.24528 h 7.2813 7.28131 z m 12.72488,0.77526 -5.2381,-5.23809 -5.2381,5.23809 -5.23809,5.2381 h 10.47619 10.47619 z m 54.2873,2.21159 2.89958,-3.02651 -16.95146,-16.97349 -16.95146,-16.97349 h -27.26103 c -14.99357,0 -27.26103,0.13603 -27.26103,0.30228 0,0.16626 8.8875,9.16315 19.75,19.99309 l 19.75,19.6908 21.56291,0.007 21.56291,0.007 2.89958,-3.02651 z m 6.68293,0.79039 c -1.7401,-1.74009 -2.60803,-2.00152 -3.91271,-1.17856 -3.32267,2.09589 -2.61077,3.41468 1.84327,3.41468 h 4.30555 z m 61.79167,-18.26388 v -19.5 h -19.74038 -19.74039 l 19.48077,19.5 c 10.71442,10.725 19.59759,19.5 19.74038,19.5 0.14279,0 0.25962,-8.775 0.25962,-19.5 z m -38.96546,-16.96324 -2.38317,-2.53676 h -27.32568 c -15.02913,0 -27.32569,0.33238 -27.32569,0.73863 0,0.40624 7.08387,7.8329 15.74194,16.50367 l 15.74195,15.76504 13.9669,-13.96691 13.96691,-13.9669 z M 142.1801,101.33413 175.66891,67.834127 H 141.9245 108.1801 v 33.500003 c 0,18.425 0.11502,33.5 0.2556,33.5 0.14058,0 15.32556,-15.075 33.7444,-33.5 z m 93.24528,-6.745293 -13.24528,-13.24528 -13.24528,13.24528 -13.24529,13.245293 h 26.49057 26.49057 z m 51.25472,-6.75471 -19.98125,-20 h -15.54068 -15.54068 l -5.71869,5.77899 c -3.14529,3.17845 -5.7187,6.20992 -5.7187,6.7366 0,0.52667 5.95625,6.92613 13.23611,14.221 l 13.2361,13.263413 h 28.00452 28.00452 z m 63.5,12.264443 v -7.735563 l -12.23499,-12.26444 -12.235,-12.26444 h -28.50563 -28.50563 l 19.98125,20 19.98125,20.000003 h 20.75937 20.75938 z m 15,7.45667 c 0,-0.15339 -2.925,-3.17789 -6.5,-6.72111 l -6.5,-6.442233 v 6.721123 6.72111 h 6.5 c 3.575,0 6.5,-0.1255 6.5,-0.27889 z m -15,-28.721113 v -11 h -11.23295 -11.23294 l 10.96589,11 c 6.03124,6.05 11.08607,11 11.23295,11 0.14688,0 0.26705,-4.95 0.26705,-11 z m -122,-5.5 5.43168,-5.5 H 222.1801 210.74842 l 5.43168,5.5 c 2.98742,3.025 5.68742,5.5 6,5.5 0.31258,0 3.01258,-2.475 6,-5.5 z m -28.24818,-14.22967 -6.72966,-6.72966 -6.01108,5.94836 c -3.30609,3.2716 -6.01108,6.29995 -6.01108,6.72966 0,0.42972 5.73333,0.78131 12.74074,0.78131 h 12.74074 z m 63.24818,5.94836 c 0,-0.42971 -2.7,-3.45313 -6,-6.71869 l -6,-5.9374 -6,5.9374 c -3.3,3.26556 -6,6.28898 -6,6.71869 0,0.42972 5.4,0.78131 12,0.78131 6.6,0 12,-0.35159 12,-0.78131 z m 39.00189,-20.7168 -21.48066,-21.498107 -14.25534,14.229904 -14.25533,14.229903 7.21969,7.2682 7.21969,7.26821 h 28.51631 28.51631 z"
     id="path889"
     inkscape:connector-curvature="0" />
</svg>
